<svg
              viewBox="0 0 232 167"
              fill="none"
              xmlns="http://www.w3.org/2000/svg"
            >
              <path
                fillRule="evenodd"
                clipRule="evenodd"
                d="M160.72 22.7892C160.72 25.9534 160.72 29.1175 160.869 32.4323C160.886 33.3151 160.903 34.2067 160.918 35.1064C144.299 30.8595 119.266 32.325 108.453 39.5029C104.523 42.1165 101.081 49.0415 98.4148 56.0892H87.6667C86.8127 56.0892 86.0097 56.4773 85.4752 57.1421C84.938 57.804 84.7231 58.68 84.8984 59.5217L86.4904 67.3056C86.7618 68.6324 87.9212 69.5797 89.2587 69.5797H92.4427C89.369 73.1577 87.8788 77.6631 87.859 82.1713C87.8392 87.741 89.9345 92.7742 93.766 96.3352C93.7854 96.3521 93.8048 96.3667 93.824 96.3811C93.8467 96.3982 93.869 96.4149 93.8904 96.435V107.326C93.8904 109.686 95.7907 111.606 98.132 111.606H108.046C110.387 111.606 112.287 109.686 112.287 107.326V102.949H144.6C137.018 112.181 125.992 120.113 109.995 125.699L108.503 126L107.011 125.699C64.7845 110.997 57.1901 79.9352 56.1451 51.8668H81.9247L86.2955 43.9212H56.0005C55.9985 42.834 56.0026 41.7546 56.0111 40.6841H90.9578L95.3286 32.7384H56.1307L56.1339 32.5701L56.1365 32.4323C56.2857 29.1175 56.2857 25.9534 56.2857 22.7892C56.2857 20.2278 58.2252 18.2691 60.7615 18.2691C79.4105 18.2691 93.5837 12.8448 105.37 1.24305C107.16 -0.41435 109.846 -0.41435 111.636 1.24305C123.422 12.8448 137.595 18.2691 156.244 18.2691C158.781 18.2691 160.72 20.2278 160.72 22.7892ZM161 43.9533C160.986 49.3575 160.819 54.944 160.285 60.566H105.826C108.3 53.6753 111.006 48.0486 113.11 46.6504C122.355 40.5105 147.193 39.6115 161 43.9533ZM108.77 74.8269C104.163 74.8269 100.425 78.5933 100.425 83.2442C100.425 87.8951 104.163 91.6643 108.77 91.6643C113.382 91.6643 117.114 87.8951 117.114 83.2442C117.114 78.5933 113.382 74.8269 108.77 74.8269Z"
                fill="white"
              />
              <path
                d="M20.2861 161H16.041L14.3535 156.61H6.62793L5.03271 161H0.893066L8.4209 141.673H12.5474L20.2861 161ZM13.1011 153.354L10.438 146.182L7.82764 153.354H13.1011ZM31.5581 161V158.904C31.0483 159.651 30.376 160.24 29.541 160.67C28.7148 161.101 27.8403 161.316 26.9175 161.316C25.9771 161.316 25.1333 161.11 24.3862 160.697C23.6392 160.284 23.0986 159.704 22.7646 158.957C22.4307 158.209 22.2637 157.177 22.2637 155.858V146.999H25.9683V153.433C25.9683 155.401 26.0342 156.61 26.166 157.058C26.3066 157.498 26.5571 157.849 26.9175 158.113C27.2778 158.368 27.7349 158.495 28.2886 158.495C28.9214 158.495 29.4883 158.324 29.9893 157.981C30.4902 157.629 30.833 157.199 31.0176 156.689C31.2021 156.17 31.2944 154.909 31.2944 152.905V146.999H34.999V161H31.5581ZM45.269 146.999V149.952H42.7378V155.595C42.7378 156.737 42.7598 157.405 42.8037 157.599C42.8564 157.783 42.9663 157.937 43.1333 158.06C43.3091 158.183 43.52 158.245 43.7661 158.245C44.1089 158.245 44.6055 158.126 45.2559 157.889L45.5723 160.763C44.7109 161.132 43.7354 161.316 42.6455 161.316C41.9775 161.316 41.3755 161.207 40.8394 160.987C40.3032 160.758 39.9077 160.468 39.6528 160.117C39.4067 159.756 39.2354 159.273 39.1387 158.667C39.0596 158.236 39.02 157.366 39.02 156.056V149.952H37.3193V146.999H39.02V144.217L42.7378 142.055V146.999H45.269ZM46.9829 153.802C46.9829 152.571 47.2861 151.38 47.8926 150.229C48.499 149.078 49.356 148.199 50.4634 147.592C51.5796 146.986 52.8232 146.683 54.1943 146.683C56.3125 146.683 58.0483 147.373 59.4019 148.752C60.7554 150.124 61.4321 151.859 61.4321 153.96C61.4321 156.078 60.7466 157.836 59.3755 159.233C58.0132 160.622 56.2949 161.316 54.2207 161.316C52.9375 161.316 51.7114 161.026 50.5425 160.446C49.3823 159.866 48.499 159.018 47.8926 157.902C47.2861 156.777 46.9829 155.41 46.9829 153.802ZM50.7798 154C50.7798 155.388 51.1094 156.452 51.7686 157.19C52.4277 157.928 53.2407 158.297 54.2075 158.297C55.1743 158.297 55.9829 157.928 56.6333 157.19C57.2925 156.452 57.6221 155.379 57.6221 153.973C57.6221 152.602 57.2925 151.547 56.6333 150.809C55.9829 150.071 55.1743 149.702 54.2075 149.702C53.2407 149.702 52.4277 150.071 51.7686 150.809C51.1094 151.547 50.7798 152.611 50.7798 154ZM70.8979 154.711L74.6948 154.342C74.9233 155.617 75.3848 156.553 76.0791 157.15C76.7822 157.748 77.7271 158.047 78.9136 158.047C80.1704 158.047 81.1152 157.783 81.748 157.256C82.3896 156.72 82.7104 156.096 82.7104 155.384C82.7104 154.927 82.5742 154.54 82.3018 154.224C82.0381 153.898 81.5723 153.617 80.9043 153.38C80.4473 153.222 79.4058 152.94 77.7798 152.536C75.688 152.018 74.2202 151.38 73.3765 150.625C72.1899 149.561 71.5967 148.265 71.5967 146.735C71.5967 145.751 71.8735 144.833 72.4272 143.98C72.9897 143.119 73.7939 142.464 74.8398 142.016C75.8945 141.567 77.1646 141.343 78.6499 141.343C81.0757 141.343 82.8994 141.875 84.1211 142.938C85.3516 144.002 85.9976 145.421 86.0591 147.197L82.1567 147.368C81.9897 146.375 81.6294 145.663 81.0757 145.232C80.5308 144.793 79.709 144.573 78.6104 144.573C77.4766 144.573 76.5889 144.806 75.9473 145.272C75.5342 145.571 75.3276 145.971 75.3276 146.472C75.3276 146.929 75.521 147.32 75.9077 147.645C76.3999 148.058 77.5952 148.489 79.4937 148.937C81.3921 149.385 82.7939 149.851 83.6992 150.334C84.6133 150.809 85.3252 151.464 85.835 152.299C86.3535 153.125 86.6128 154.149 86.6128 155.371C86.6128 156.478 86.3052 157.515 85.6899 158.482C85.0747 159.449 84.2046 160.169 83.0796 160.644C81.9546 161.11 80.5527 161.343 78.874 161.343C76.4307 161.343 74.5542 160.78 73.2446 159.655C71.9351 158.521 71.1528 156.874 70.8979 154.711ZM92.6377 151.271L89.2759 150.664C89.6538 149.311 90.3042 148.309 91.2271 147.658C92.1499 147.008 93.521 146.683 95.3403 146.683C96.9927 146.683 98.2231 146.88 99.0317 147.276C99.8403 147.663 100.407 148.159 100.732 148.766C101.066 149.363 101.233 150.466 101.233 152.075L101.194 156.399C101.194 157.629 101.251 158.539 101.365 159.128C101.488 159.708 101.712 160.332 102.038 161H98.3726C98.2759 160.754 98.1572 160.389 98.0166 159.906C97.9551 159.686 97.9111 159.541 97.8848 159.471C97.252 160.086 96.5752 160.547 95.8545 160.855C95.1338 161.163 94.3647 161.316 93.5474 161.316C92.106 161.316 90.9678 160.925 90.1328 160.143C89.3066 159.361 88.8936 158.372 88.8936 157.177C88.8936 156.386 89.0825 155.683 89.4604 155.067C89.8384 154.443 90.3657 153.969 91.0425 153.644C91.728 153.31 92.7124 153.02 93.9956 152.773C95.7271 152.448 96.9268 152.145 97.5947 151.864V151.495C97.5947 150.783 97.4189 150.277 97.0674 149.979C96.7158 149.671 96.0522 149.517 95.0767 149.517C94.4175 149.517 93.9033 149.649 93.5342 149.913C93.165 150.167 92.8662 150.62 92.6377 151.271ZM97.5947 154.276C97.1201 154.435 96.3687 154.624 95.3403 154.843C94.312 155.063 93.6396 155.278 93.3232 155.489C92.8398 155.832 92.5981 156.267 92.5981 156.794C92.5981 157.313 92.7915 157.761 93.1782 158.139C93.5649 158.517 94.0571 158.706 94.6548 158.706C95.3228 158.706 95.96 158.486 96.5664 158.047C97.0146 157.713 97.3091 157.304 97.4497 156.821C97.5464 156.504 97.5947 155.902 97.5947 155.015V154.276ZM117.634 161H113.929V153.854C113.929 152.343 113.85 151.367 113.692 150.928C113.534 150.479 113.274 150.132 112.914 149.886C112.562 149.64 112.136 149.517 111.635 149.517C110.994 149.517 110.418 149.693 109.908 150.044C109.398 150.396 109.047 150.862 108.854 151.442C108.669 152.022 108.577 153.094 108.577 154.659V161H104.872V146.999H108.313V149.056C109.535 147.474 111.073 146.683 112.927 146.683C113.745 146.683 114.492 146.832 115.168 147.131C115.845 147.421 116.355 147.794 116.698 148.251C117.049 148.708 117.291 149.227 117.423 149.807C117.563 150.387 117.634 151.218 117.634 152.299V161ZM120.099 157.005L123.817 156.438C123.975 157.159 124.296 157.708 124.779 158.086C125.263 158.456 125.939 158.64 126.81 158.64C127.768 158.64 128.488 158.464 128.972 158.113C129.297 157.867 129.459 157.537 129.459 157.124C129.459 156.843 129.372 156.61 129.196 156.425C129.011 156.25 128.598 156.087 127.957 155.938C124.968 155.278 123.074 154.676 122.274 154.131C121.167 153.375 120.613 152.325 120.613 150.98C120.613 149.768 121.092 148.748 122.05 147.922C123.008 147.096 124.494 146.683 126.506 146.683C128.422 146.683 129.846 146.995 130.778 147.619C131.709 148.243 132.351 149.166 132.703 150.387L129.209 151.033C129.06 150.488 128.774 150.071 128.352 149.781C127.939 149.491 127.346 149.346 126.572 149.346C125.597 149.346 124.898 149.482 124.476 149.754C124.195 149.948 124.054 150.198 124.054 150.506C124.054 150.77 124.177 150.994 124.423 151.178C124.757 151.424 125.909 151.771 127.877 152.22C129.855 152.668 131.235 153.217 132.017 153.868C132.791 154.527 133.177 155.445 133.177 156.623C133.177 157.906 132.641 159.009 131.569 159.932C130.497 160.855 128.91 161.316 126.81 161.316C124.902 161.316 123.391 160.93 122.274 160.156C121.167 159.383 120.442 158.333 120.099 157.005ZM143.988 161V141.673H152.201C154.267 141.673 155.765 141.849 156.697 142.2C157.637 142.543 158.389 143.158 158.951 144.046C159.514 144.934 159.795 145.949 159.795 147.091C159.795 148.542 159.369 149.741 158.516 150.69C157.664 151.631 156.389 152.224 154.693 152.47C155.537 152.962 156.231 153.503 156.776 154.092C157.33 154.681 158.072 155.727 159.004 157.229L161.364 161H156.697L153.875 156.794C152.874 155.292 152.188 154.347 151.819 153.96C151.45 153.564 151.059 153.296 150.646 153.156C150.232 153.006 149.578 152.932 148.681 152.932H147.89V161H143.988ZM147.89 149.847H150.777C152.649 149.847 153.818 149.768 154.284 149.609C154.75 149.451 155.115 149.179 155.378 148.792C155.642 148.405 155.774 147.922 155.774 147.342C155.774 146.691 155.598 146.168 155.247 145.773C154.904 145.369 154.416 145.114 153.783 145.008C153.467 144.964 152.518 144.942 150.936 144.942H147.89V149.847ZM163.46 145.101V141.673H167.165V145.101H163.46ZM163.46 161V146.999H167.165V161H163.46ZM169.669 157.005L173.387 156.438C173.545 157.159 173.866 157.708 174.35 158.086C174.833 158.456 175.51 158.64 176.38 158.64C177.338 158.64 178.059 158.464 178.542 158.113C178.867 157.867 179.03 157.537 179.03 157.124C179.03 156.843 178.942 156.61 178.766 156.425C178.582 156.25 178.168 156.087 177.527 155.938C174.539 155.278 172.645 154.676 171.845 154.131C170.737 153.375 170.184 152.325 170.184 150.98C170.184 149.768 170.663 148.748 171.621 147.922C172.579 147.096 174.064 146.683 176.077 146.683C177.993 146.683 179.417 146.995 180.348 147.619C181.28 148.243 181.921 149.166 182.273 150.387L178.779 151.033C178.63 150.488 178.344 150.071 177.922 149.781C177.509 149.491 176.916 149.346 176.143 149.346C175.167 149.346 174.468 149.482 174.046 149.754C173.765 149.948 173.625 150.198 173.625 150.506C173.625 150.77 173.748 150.994 173.994 151.178C174.328 151.424 175.479 151.771 177.448 152.22C179.425 152.668 180.805 153.217 181.587 153.868C182.361 154.527 182.748 155.445 182.748 156.623C182.748 157.906 182.211 159.009 181.139 159.932C180.067 160.855 178.48 161.316 176.38 161.316C174.473 161.316 172.961 160.93 171.845 160.156C170.737 159.383 170.012 158.333 169.669 157.005ZM195.153 166.326V159.286C194.67 159.91 194.068 160.407 193.347 160.776C192.626 161.136 191.849 161.316 191.014 161.316C189.423 161.316 188.113 160.719 187.085 159.523C185.872 158.126 185.266 156.232 185.266 153.841C185.266 151.591 185.833 149.838 186.966 148.581C188.109 147.315 189.524 146.683 191.211 146.683C192.143 146.683 192.947 146.88 193.624 147.276C194.31 147.671 194.916 148.269 195.443 149.069V146.999H198.858V166.326H195.153ZM195.272 153.828C195.272 152.396 194.978 151.332 194.389 150.638C193.809 149.935 193.079 149.583 192.2 149.583C191.304 149.583 190.552 149.939 189.946 150.651C189.348 151.363 189.049 152.492 189.049 154.039C189.049 155.577 189.339 156.689 189.919 157.375C190.5 158.051 191.216 158.39 192.068 158.39C192.921 158.39 193.668 158.007 194.31 157.243C194.951 156.478 195.272 155.34 195.272 153.828ZM211.725 161V158.904C211.215 159.651 210.543 160.24 209.708 160.67C208.882 161.101 208.007 161.316 207.084 161.316C206.144 161.316 205.3 161.11 204.553 160.697C203.806 160.284 203.266 159.704 202.932 158.957C202.598 158.209 202.431 157.177 202.431 155.858V146.999H206.135V153.433C206.135 155.401 206.201 156.61 206.333 157.058C206.474 157.498 206.724 157.849 207.084 158.113C207.445 158.368 207.902 158.495 208.456 158.495C209.088 158.495 209.655 158.324 210.156 157.981C210.657 157.629 211 157.199 211.185 156.689C211.369 156.17 211.461 154.909 211.461 152.905V146.999H215.166V161H211.725ZM227.124 156.544L230.815 157.164C230.34 158.517 229.589 159.55 228.561 160.262C227.541 160.965 226.262 161.316 224.724 161.316C222.29 161.316 220.488 160.521 219.319 158.93C218.396 157.656 217.935 156.047 217.935 154.105C217.935 151.785 218.541 149.97 219.754 148.66C220.967 147.342 222.5 146.683 224.355 146.683C226.438 146.683 228.082 147.373 229.286 148.752C230.49 150.124 231.065 152.229 231.013 155.067H221.731C221.758 156.166 222.057 157.023 222.628 157.638C223.199 158.245 223.911 158.548 224.764 158.548C225.344 158.548 225.832 158.39 226.227 158.073C226.623 157.757 226.921 157.247 227.124 156.544ZM227.334 152.8C227.308 151.728 227.031 150.915 226.504 150.361C225.977 149.798 225.335 149.517 224.579 149.517C223.771 149.517 223.103 149.812 222.575 150.4C222.048 150.989 221.789 151.789 221.797 152.8H227.334Z"
                fill="white"
              />
            </svg>